# Made in Blockbench 4.8.1
mtllib model.mtl

o pyramid
v 0.30000000000000004 0.75 0.30000000000000004
v 0.30000000000000004 0.75 -0.30000000000000004
v -0.30000000000000004 0.75 0.30000000000000004
v -0.30000000000000004 0.75 -0.30000000000000004
v 0 1.35 0
vt 0.25 0.25
vt 0.25 0.5
vt 0 0.5
vt 0 0.25
vt 0.41714107412574764 0.3896247863291059
vt 0.6453589258742523 0.28756298082235654
vt 0.6453589258742524 0.59375
vt 0.010891074125747649 0.7958747863291059
vt 0.2391089258742523 0.6938129808223565
vt 0.23910892587425236 1
vt 0.19839107412574764 0.5771247863291059
vt 0.4266089258742523 0.47506298082235654
vt 0.42660892587425236 0.78125
vt 0.47964107412574764 0.7958747863291059
vt 0.7078589258742523 0.6938129808223565
vt 0.7078589258742524 1
vn 0 -1 0
vn 0.8944271909999159 0.4472135954999579 0
vn 0 0.4472135954999579 0.8944271909999159
vn 0 0.4472135954999579 -0.8944271909999159
vn -0.8944271909999159 0.4472135954999579 0
usemtl m_1f9d008f-e1d5-6fd4-5eb6-249b466783cd
f 2/1/1 1/2/1 3/3/1 4/4/1
f 1/5/2 2/6/2 5/7/2
f 3/8/3 1/9/3 5/10/3
f 2/11/4 4/12/4 5/13/4
f 4/14/5 3/15/5 5/16/5
o pyramid
v 0.30000000000000004 0.75 -0.30000000000000004
v 0.30000000000000004 0.75 0.30000000000000004
v -0.30000000000000004 0.75 -0.30000000000000004
v -0.30000000000000004 0.75 0.30000000000000004
v 0 0.1499999999999999 -7.34788079488412e-17
vt 0.25 0.25
vt 0.25 0.5
vt 0 0.5
vt 0 0.25
vt 0.41714107412574764 0.3896247863291059
vt 0.6453589258742523 0.28756298082235654
vt 0.6453589258742524 0.59375
vt 0.010891074125747649 0.7958747863291059
vt 0.2391089258742523 0.6938129808223565
vt 0.23910892587425236 1
vt 0.19839107412574764 0.5771247863291059
vt 0.4266089258742523 0.47506298082235654
vt 0.42660892587425236 0.78125
vt 0.47964107412574764 0.7958747863291059
vt 0.7078589258742523 0.6938129808223565
vt 0.7078589258742524 1
vn 0 1 1.2246467991473532e-16
vn 0.8944271909999159 -0.4472135954999579 -5.476786982642026e-17
vn 0 -0.4472135954999578 -0.8944271909999159
vn 0 -0.4472135954999581 0.8944271909999159
vn -0.8944271909999159 -0.4472135954999579 -5.476786982642026e-17
usemtl m_1f9d008f-e1d5-6fd4-5eb6-249b466783cd
f 7/17/6 6/18/6 8/19/6 9/20/6
f 6/21/7 7/22/7 10/23/7
f 8/24/8 6/25/8 10/26/8
f 7/27/9 9/28/9 10/29/9
f 9/30/10 8/31/10 10/32/10