{"asset":{"version":"2.0","generator":"Blockbench 4.5.0 glTF exporter"},"scenes":[{"nodes":[7],"name":"blockbench_export"}],"scene":0,"nodes":[{"name":"cube","mesh":0},{"name":"cube","mesh":1},{"name":"cube","mesh":2},{"name":"cube","mesh":3},{"name":"cube","mesh":4},{"name":"cube","mesh":5},{"name":"cube","mesh":6},{"translation":[-0.5,-0.5,-0.5],"children":[0,1,2,3,4,5,6]}],"bufferViews":[{"buffer":0,"byteOffset":0,"byteLength":288,"target":34962,"byteStride":12},{"buffer":0,"byteOffset":288,"byteLength":288,"target":34962,"byteStride":12},{"buffer":0,"byteOffset":576,"byteLength":192,"target":34962,"byteStride":8},{"buffer":0,"byteOffset":768,"byteLength":24,"target":34963},{"buffer":0,"byteOffset":792,"byteLength":12,"target":34963},{"buffer":0,"byteOffset":804,"byteLength":12,"target":34963},{"buffer":0,"byteOffset":816,"byteLength":24,"target":34963},{"buffer":0,"byteOffset":840,"byteLength":288,"target":34962,"byteStride":12},{"buffer":0,"byteOffset":1128,"byteLength":288,"target":34962,"byteStride":12},{"buffer":0,"byteOffset":1416,"byteLength":192,"target":34962,"byteStride":8},{"buffer":0,"byteOffset":1608,"byteLength":24,"target":34963},{"buffer":0,"byteOffset":1632,"byteLength":12,"target":34963},{"buffer":0,"byteOffset":1644,"byteLength":12,"target":34963},{"buffer":0,"byteOffset":1656,"byteLength":12,"target":34963},{"buffer":0,"byteOffset":1668,"byteLength":12,"target":34963},{"buffer":0,"byteOffset":1680,"byteLength":288,"target":34962,"byteStride":12},{"buffer":0,"byteOffset":1968,"byteLength":288,"target":34962,"byteStride":12},{"buffer":0,"byteOffset":2256,"byteLength":192,"target":34962,"byteStride":8},{"buffer":0,"byteOffset":2448,"byteLength":24,"target":34963},{"buffer":0,"byteOffset":2472,"byteLength":12,"target":34963},{"buffer":0,"byteOffset":2484,"byteLength":12,"target":34963},{"buffer":0,"byteOffset":2496,"byteLength":12,"target":34963},{"buffer":0,"byteOffset":2508,"byteLength":12,"target":34963},{"buffer":0,"byteOffset":2520,"byteLength":288,"target":34962,"byteStride":12},{"buffer":0,"byteOffset":2808,"byteLength":288,"target":34962,"byteStride":12},{"buffer":0,"byteOffset":3096,"byteLength":192,"target":34962,"byteStride":8},{"buffer":0,"byteOffset":3288,"byteLength":24,"target":34963},{"buffer":0,"byteOffset":3312,"byteLength":12,"target":34963},{"buffer":0,"byteOffset":3324,"byteLength":12,"target":34963},{"buffer":0,"byteOffset":3336,"byteLength":24,"target":34963},{"buffer":0,"byteOffset":3360,"byteLength":288,"target":34962,"byteStride":12},{"buffer":0,"byteOffset":3648,"byteLength":288,"target":34962,"byteStride":12},{"buffer":0,"byteOffset":3936,"byteLength":192,"target":34962,"byteStride":8},{"buffer":0,"byteOffset":4128,"byteLength":24,"target":34963},{"buffer":0,"byteOffset":4152,"byteLength":12,"target":34963},{"buffer":0,"byteOffset":4164,"byteLength":12,"target":34963},{"buffer":0,"byteOffset":4176,"byteLength":12,"target":34963},{"buffer":0,"byteOffset":4188,"byteLength":12,"target":34963},{"buffer":0,"byteOffset":4200,"byteLength":288,"target":34962,"byteStride":12},{"buffer":0,"byteOffset":4488,"byteLength":288,"target":34962,"byteStride":12},{"buffer":0,"byteOffset":4776,"byteLength":192,"target":34962,"byteStride":8},{"buffer":0,"byteOffset":4968,"byteLength":24,"target":34963},{"buffer":0,"byteOffset":4992,"byteLength":12,"target":34963},{"buffer":0,"byteOffset":5004,"byteLength":12,"target":34963},{"buffer":0,"byteOffset":5016,"byteLength":12,"target":34963},{"buffer":0,"byteOffset":5028,"byteLength":12,"target":34963},{"buffer":0,"byteOffset":5040,"byteLength":288,"target":34962,"byteStride":12},{"buffer":0,"byteOffset":5328,"byteLength":288,"target":34962,"byteStride":12},{"buffer":0,"byteOffset":5616,"byteLength":192,"target":34962,"byteStride":8},{"buffer":0,"byteOffset":5808,"byteLength":24,"target":34963},{"buffer":0,"byteOffset":5832,"byteLength":12,"target":34963},{"buffer":0,"byteOffset":5844,"byteLength":12,"target":34963},{"buffer":0,"byteOffset":5856,"byteLength":24,"target":34963}],"buffers":[{"byteLength":5880,"uri":"data:application/octet-stream;base64,"}],"accessors":[{"bufferView":0,"componentType":5126,"count":24,"max":[0.8125,0.40625,1],"min":[0.1875,0,0],"type":"VEC3"},{"bufferView":1,"componentType":5126,"count":24,"max":[1,1,1],"min":[-1,-1,-1],"type":"VEC3"},{"bufferView":2,"componentType":5126,"count":24,"max":[1,1],"min":[0,0],"type":"VEC2"},{"bufferView":3,"componentType":5123,"count":12,"max":[7],"min":[0],"type":"SCALAR"},{"bufferView":4,"componentType":5123,"count":6,"max":[11],"min":[8],"type":"SCALAR"},{"bufferView":5,"componentType":5123,"count":6,"max":[15],"min":[12],"type":"SCALAR"},{"bufferView":6,"componentType":5123,"count":12,"max":[23],"min":[16],"type":"SCALAR"},{"bufferView":7,"componentType":5126,"count":24,"max":[0.8125,0.4375,0.34375],"min":[0.1875,0.40625,0],"type":"VEC3"},{"bufferView":8,"componentType":5126,"count":24,"max":[1,1,1],"min":[-1,-1,-1],"type":"VEC3"},{"bufferView":9,"componentType":5126,"count":24,"max":[1,1],"min":[0.1875,0],"type":"VEC2"},{"bufferView":10,"componentType":5123,"count":12,"max":[7],"min":[0],"type":"SCALAR"},{"bufferView":11,"componentType":5123,"count":6,"max":[11],"min":[8],"type":"SCALAR"},{"bufferView":12,"componentType":5123,"count":6,"max":[15],"min":[12],"type":"SCALAR"},{"bufferView":13,"componentType":5123,"count":6,"max":[19],"min":[16],"type":"SCALAR"},{"bufferView":14,"componentType":5123,"count":6,"max":[23],"min":[20],"type":"SCALAR"},{"bufferView":15,"componentType":5126,"count":24,"max":[0.8125,0.46875,0.1875],"min":[0.1875,0.4375,0],"type":"VEC3"},{"bufferView":16,"componentType":5126,"count":24,"max":[1,1,1],"min":[-1,-1,-1],"type":"VEC3"},{"bufferView":17,"componentType":5126,"count":24,"max":[1,1],"min":[0.1875,0],"type":"VEC2"},{"bufferView":18,"componentType":5123,"count":12,"max":[7],"min":[0],"type":"SCALAR"},{"bufferView":19,"componentType":5123,"count":6,"max":[11],"min":[8],"type":"SCALAR"},{"bufferView":20,"componentType":5123,"count":6,"max":[15],"min":[12],"type":"SCALAR"},{"bufferView":21,"componentType":5123,"count":6,"max":[19],"min":[16],"type":"SCALAR"},{"bufferView":22,"componentType":5123,"count":6,"max":[23],"min":[20],"type":"SCALAR"},{"bufferView":23,"componentType":5126,"count":24,"max":[0.8125,0.4375,1],"min":[0.1875,0.40625,0.65625],"type":"VEC3"},{"bufferView":24,"componentType":5126,"count":24,"max":[1,1,1],"min":[-1,-1,-1],"type":"VEC3"},{"bufferView":25,"componentType":5126,"count":24,"max":[0.8125,1],"min":[0,0],"type":"VEC2"},{"bufferView":26,"componentType":5123,"count":12,"max":[7],"min":[0],"type":"SCALAR"},{"bufferView":27,"componentType":5123,"count":6,"max":[11],"min":[8],"type":"SCALAR"},{"bufferView":28,"componentType":5123,"count":6,"max":[15],"min":[12],"type":"SCALAR"},{"bufferView":29,"componentType":5123,"count":12,"max":[23],"min":[16],"type":"SCALAR"},{"bufferView":30,"componentType":5126,"count":24,"max":[0.8125,0.46875,1],"min":[0.1875,0.4375,0.8125],"type":"VEC3"},{"bufferView":31,"componentType":5126,"count":24,"max":[1,1,1],"min":[-1,-1,-1],"type":"VEC3"},{"bufferView":32,"componentType":5126,"count":24,"max":[0.8125,1],"min":[0,0],"type":"VEC2"},{"bufferView":33,"componentType":5123,"count":12,"max":[7],"min":[0],"type":"SCALAR"},{"bufferView":34,"componentType":5123,"count":6,"max":[11],"min":[8],"type":"SCALAR"},{"bufferView":35,"componentType":5123,"count":6,"max":[15],"min":[12],"type":"SCALAR"},{"bufferView":36,"componentType":5123,"count":6,"max":[19],"min":[16],"type":"SCALAR"},{"bufferView":37,"componentType":5123,"count":6,"max":[23],"min":[20],"type":"SCALAR"},{"bufferView":38,"componentType":5126,"count":24,"max":[0.8125,0.5,0.09375],"min":[0.1875,0.46875,0],"type":"VEC3"},{"bufferView":39,"componentType":5126,"count":24,"max":[1,1,1],"min":[-1,-1,-1],"type":"VEC3"},{"bufferView":40,"componentType":5126,"count":24,"max":[1,1],"min":[0.1875,0],"type":"VEC2"},{"bufferView":41,"componentType":5123,"count":12,"max":[7],"min":[0],"type":"SCALAR"},{"bufferView":42,"componentType":5123,"count":6,"max":[11],"min":[8],"type":"SCALAR"},{"bufferView":43,"componentType":5123,"count":6,"max":[15],"min":[12],"type":"SCALAR"},{"bufferView":44,"componentType":5123,"count":6,"max":[19],"min":[16],"type":"SCALAR"},{"bufferView":45,"componentType":5123,"count":6,"max":[23],"min":[20],"type":"SCALAR"},{"bufferView":46,"componentType":5126,"count":24,"max":[0.8125,0.5,1],"min":[0.1875,0.46875,0.90625],"type":"VEC3"},{"bufferView":47,"componentType":5126,"count":24,"max":[1,1,1],"min":[-1,-1,-1],"type":"VEC3"},{"bufferView":48,"componentType":5126,"count":24,"max":[0.8125,1],"min":[0,0],"type":"VEC2"},{"bufferView":49,"componentType":5123,"count":12,"max":[7],"min":[0],"type":"SCALAR"},{"bufferView":50,"componentType":5123,"count":6,"max":[11],"min":[8],"type":"SCALAR"},{"bufferView":51,"componentType":5123,"count":6,"max":[15],"min":[12],"type":"SCALAR"},{"bufferView":52,"componentType":5123,"count":12,"max":[23],"min":[16],"type":"SCALAR"}],"materials":[{"pbrMetallicRoughness":{"metallicFactor":0,"roughnessFactor":1,"baseColorTexture":{"index":0}},"alphaMode":"MASK","alphaCutoff":0.05},{"pbrMetallicRoughness":{"metallicFactor":0,"roughnessFactor":1,"baseColorTexture":{"index":1}},"alphaMode":"MASK","alphaCutoff":0.05},{"pbrMetallicRoughness":{"metallicFactor":0,"roughnessFactor":1,"baseColorTexture":{"index":2}},"alphaMode":"MASK","alphaCutoff":0.05},{"pbrMetallicRoughness":{"metallicFactor":0,"roughnessFactor":1,"baseColorTexture":{"index":3}},"alphaMode":"MASK","alphaCutoff":0.05}],"textures":[{"sampler":0,"source":0},{"sampler":1,"source":1},{"sampler":2,"source":2},{"sampler":3,"source":3}],"samplers":[{"magFilter":9728,"minFilter":9728,"wrapS":33071,"wrapT":33071},{"magFilter":9728,"minFilter":9728,"wrapS":33071,"wrapT":33071},{"magFilter":9728,"minFilter":9728,"wrapS":33071,"wrapT":33071},{"magFilter":9728,"minFilter":9728,"wrapS":33071,"wrapT":33071}],"images":[{"mimeType":"image/png","uri":"data:image/png;base64,"},{"mimeType":"image/png","uri":"data:image/png;base64,"},{"mimeType":"image/png","uri":"data:image/png;base64,"},{"mimeType":"image/png","uri":"data:image/png;base64,"}],"meshes":[{"primitives":[{"mode":4,"attributes":{"POSITION":0,"NORMAL":1,"TEXCOORD_0":2},"indices":3,"material":0},{"mode":4,"attributes":{"POSITION":0,"NORMAL":1,"TEXCOORD_0":2},"indices":4,"material":1},{"mode":4,"attributes":{"POSITION":0,"NORMAL":1,"TEXCOORD_0":2},"indices":5,"material":2},{"mode":4,"attributes":{"POSITION":0,"NORMAL":1,"TEXCOORD_0":2},"indices":6,"material":3}]},{"primitives":[{"mode":4,"attributes":{"POSITION":7,"NORMAL":8,"TEXCOORD_0":9},"indices":10,"material":0},{"mode":4,"attributes":{"POSITION":7,"NORMAL":8,"TEXCOORD_0":9},"indices":11,"material":1},{"mode":4,"attributes":{"POSITION":7,"NORMAL":8,"TEXCOORD_0":9},"indices":12,"material":2},{"mode":4,"attributes":{"POSITION":7,"NORMAL":8,"TEXCOORD_0":9},"indices":13,"material":1},{"mode":4,"attributes":{"POSITION":7,"NORMAL":8,"TEXCOORD_0":9},"indices":14,"material":3}]},{"primitives":[{"mode":4,"attributes":{"POSITION":15,"NORMAL":16,"TEXCOORD_0":17},"indices":18,"material":0},{"mode":4,"attributes":{"POSITION":15,"NORMAL":16,"TEXCOORD_0":17},"indices":19,"material":1},{"mode":4,"attributes":{"POSITION":15,"NORMAL":16,"TEXCOORD_0":17},"indices":20,"material":2},{"mode":4,"attributes":{"POSITION":15,"NORMAL":16,"TEXCOORD_0":17},"indices":21,"material":1},{"mode":4,"attributes":{"POSITION":15,"NORMAL":16,"TEXCOORD_0":17},"indices":22,"material":3}]},{"primitives":[{"mode":4,"attributes":{"POSITION":23,"NORMAL":24,"TEXCOORD_0":25},"indices":26,"material":0},{"mode":4,"attributes":{"POSITION":23,"NORMAL":24,"TEXCOORD_0":25},"indices":27,"material":1},{"mode":4,"attributes":{"POSITION":23,"NORMAL":24,"TEXCOORD_0":25},"indices":28,"material":2},{"mode":4,"attributes":{"POSITION":23,"NORMAL":24,"TEXCOORD_0":25},"indices":29,"material":3}]},{"primitives":[{"mode":4,"attributes":{"POSITION":30,"NORMAL":31,"TEXCOORD_0":32},"indices":33,"material":0},{"mode":4,"attributes":{"POSITION":30,"NORMAL":31,"TEXCOORD_0":32},"indices":34,"material":1},{"mode":4,"attributes":{"POSITION":30,"NORMAL":31,"TEXCOORD_0":32},"indices":35,"material":2},{"mode":4,"attributes":{"POSITION":30,"NORMAL":31,"TEXCOORD_0":32},"indices":36,"material":3},{"mode":4,"attributes":{"POSITION":30,"NORMAL":31,"TEXCOORD_0":32},"indices":37,"material":1}]},{"primitives":[{"mode":4,"attributes":{"POSITION":38,"NORMAL":39,"TEXCOORD_0":40},"indices":41,"material":0},{"mode":4,"attributes":{"POSITION":38,"NORMAL":39,"TEXCOORD_0":40},"indices":42,"material":1},{"mode":4,"attributes":{"POSITION":38,"NORMAL":39,"TEXCOORD_0":40},"indices":43,"material":2},{"mode":4,"attributes":{"POSITION":38,"NORMAL":39,"TEXCOORD_0":40},"indices":44,"material":1},{"mode":4,"attributes":{"POSITION":38,"NORMAL":39,"TEXCOORD_0":40},"indices":45,"material":3}]},{"primitives":[{"mode":4,"attributes":{"POSITION":46,"NORMAL":47,"TEXCOORD_0":48},"indices":49,"material":0},{"mode":4,"attributes":{"POSITION":46,"NORMAL":47,"TEXCOORD_0":48},"indices":50,"material":1},{"mode":4,"attributes":{"POSITION":46,"NORMAL":47,"TEXCOORD_0":48},"indices":51,"material":2},{"mode":4,"attributes":{"POSITION":46,"NORMAL":47,"TEXCOORD_0":48},"indices":52,"material":1}]}]}